<svg xmlns="http://www.w3.org/2000/svg" width="512" height="512" viewBox="0 0 512 512">
  <rect width="512" height="512" fill="#5B2C83"/>
  <circle cx="256" cy="129" r="22" fill="#FFCC4D"/>
  <path d="M256 151V190" fill="none" stroke="#FFCC4D" stroke-width="16" stroke-linecap="round"/>
  <path d="M211 161C223 146 238 138 256 138C274 138 289 146 301 161" fill="none" stroke="#FFCC4D" stroke-width="12" stroke-linecap="round"/>
  <path d="M174 250C182 202 211 178 256 178C301 178 330 202 338 250Z" fill="#F7F3EB"/>
  <path d="M131 266H381" fill="none" stroke="#FFCC4D" stroke-width="24" stroke-linecap="round"/>
  <path d="M106 380C139 351 175 334 211 330L283 322C300 320 312 331 312 345C312 352 309 358 304 363L370 343C390 337 407 348 410 364C413 378 405 391 391 397L273 447C247 458 219 458 193 448L106 415Z" fill="#F7F3EB"/>
  <path d="M106 380V415L72 415V380Z" fill="#FFCC4D"/>
  <circle cx="256" cy="226" r="13" fill="#20D6C7"/>
  <path d="M226 226H197M286 226H315" fill="none" stroke="#20D6C7" stroke-width="10" stroke-linecap="round"/>
  <circle cx="188" cy="226" r="9" fill="#20D6C7"/>
  <circle cx="324" cy="226" r="9" fill="#20D6C7"/>
</svg>
